<svg width="23" height="17" viewBox="0 0 23 17" fill="none" xmlns="http://www.w3.org/2000/svg">
<g clip-path="url(#clip0_5_1624)">
<path d="M22.9999 10.8057V11.9364C22.958 11.9718 22.9639 12.0212 22.9621 12.0671C22.945 12.5263 22.8936 12.982 22.7955 13.431C22.7118 13.8134 22.6317 14.1971 22.5268 14.5741C22.4498 14.8518 22.3355 15.1198 22.2387 15.3923C22.0555 15.9057 21.8399 16.4051 21.5707 16.882C21.5207 16.9707 21.4716 16.9994 21.3681 16.9994C15.5392 16.9963 9.71079 16.9968 3.88191 16.9968C3.12342 16.9968 2.36493 16.9968 1.60599 16.9959C1.55152 16.9959 1.49255 17.0131 1.45609 16.9451C1.3134 16.6784 1.15225 16.4206 1.02666 16.1464C0.88126 15.8289 0.759271 15.5009 0.640884 15.1724C0.59542 15.0457 0.536001 14.9203 0.505391 14.7913C0.395106 14.3242 0.262315 13.8633 0.177688 13.3891C0.098463 12.9444 0.0394944 12.4967 0.0174374 12.0499C-0.0217249 11.2472 -0.00371923 10.4423 0.127722 9.64538C0.182189 9.31468 0.238457 8.98177 0.328485 8.65946C0.414913 8.35083 0.495488 8.04 0.603072 7.73535C0.768724 7.26468 0.957334 6.80461 1.1779 6.35779C1.39442 5.91892 1.64245 5.49814 1.92289 5.09371C2.16777 4.74049 2.41759 4.39124 2.69218 4.06054C2.98927 3.70291 3.31833 3.37176 3.66044 3.05519C4.10518 2.64369 4.58593 2.27767 5.09189 1.93858C5.38493 1.7421 5.68742 1.56107 5.99352 1.38976C6.38244 1.17209 6.79027 0.985327 7.2089 0.823288C7.57442 0.681559 7.94174 0.549985 8.32211 0.450642C8.74344 0.340702 9.16702 0.247541 9.59466 0.164093C10.034 0.0784369 10.4765 0.0413489 10.9172 0.0170651C11.7162 -0.0275289 12.5152 0.0117668 13.3074 0.147315C13.7625 0.225023 14.2113 0.3226 14.6561 0.446668C14.8753 0.507598 15.0886 0.582657 15.3047 0.652418C15.6455 0.762799 15.9786 0.891724 16.3009 1.04714C16.4557 1.12176 16.6101 1.19858 16.7654 1.27188C16.9909 1.37784 17.2052 1.50235 17.419 1.62598C17.6472 1.75755 17.857 1.92136 18.0789 2.06265C18.503 2.33286 18.8856 2.65208 19.2606 2.97925C19.5414 3.22385 19.7899 3.50422 20.0492 3.77267C20.3229 4.05613 20.5525 4.37535 20.7942 4.68397C20.9697 4.90783 21.1237 5.1489 21.2754 5.38997C21.4334 5.64164 21.5923 5.89463 21.7228 6.16043C21.8817 6.48318 22.0429 6.80594 22.1716 7.14282C22.263 7.38257 22.3796 7.61525 22.4449 7.86162C22.552 8.26562 22.6753 8.66564 22.7541 9.07802C22.8482 9.57032 22.9517 10.0595 22.9427 10.5638C22.9414 10.6476 22.9463 10.7333 22.9994 10.8066L22.9999 10.8057ZM11.5204 15.6121V15.6152C13.9448 15.6152 16.3693 15.6152 18.7938 15.6152C19.3843 15.6152 19.9749 15.6166 20.5655 15.6174C20.6078 15.6174 20.6699 15.6307 20.6803 15.5843C20.7024 15.4841 20.7784 15.4152 20.8126 15.3225C20.8977 15.0916 20.9936 14.8646 21.0836 14.635C21.1291 14.5185 21.1836 14.4028 21.2115 14.2818C21.2835 13.9692 21.374 13.661 21.4464 13.348C21.5239 13.0138 21.5743 12.6751 21.6089 12.3391C21.6864 11.5903 21.6738 10.8366 21.5864 10.0873C21.5401 9.68909 21.464 9.29481 21.3627 8.90539C21.3204 8.74246 21.2605 8.58484 21.2214 8.4228C21.1403 8.08592 20.9981 7.77111 20.8658 7.4541C20.7618 7.20596 20.6285 6.96798 20.5079 6.72602C20.2374 6.18427 19.8948 5.69153 19.5252 5.21336C19.2939 4.91401 19.0341 4.64071 18.7703 4.36961C18.2968 3.88393 17.7692 3.45919 17.2106 3.07506C16.8613 2.83487 16.4895 2.62471 16.1033 2.43971C15.6347 2.21541 15.1571 2.0207 14.6615 1.85954C14.1857 1.70501 13.7027 1.5858 13.2102 1.50853C12.8285 1.44849 12.4414 1.42111 12.056 1.38402C11.3007 1.31117 10.5544 1.41361 9.81027 1.51736C9.57575 1.55004 9.34438 1.61097 9.11255 1.66395C8.6354 1.77345 8.17356 1.9218 7.72387 2.10901C7.44928 2.22336 7.17784 2.34478 6.91001 2.47326C6.70745 2.5704 6.50758 2.6746 6.31672 2.79204C6.02863 2.96909 5.74729 3.1563 5.47586 3.35896C5.16211 3.59253 4.86411 3.84199 4.57647 4.10514C4.3514 4.31089 4.14479 4.53209 3.93862 4.7555C3.77297 4.9352 3.61587 5.12241 3.47138 5.31712C3.20129 5.68138 2.94516 6.05491 2.71694 6.4483C2.50357 6.81654 2.31181 7.19536 2.15246 7.58479C1.91794 8.15789 1.72302 8.74644 1.61049 9.35927C1.53442 9.77342 1.44529 10.1898 1.43178 10.6066C1.41198 11.2207 1.37056 11.8389 1.47725 12.4517C1.54612 12.8473 1.57538 13.2491 1.67891 13.6394C1.78019 14.0222 1.87472 14.4068 2.02777 14.7746C2.1115 14.9759 2.18262 15.1821 2.25959 15.3861C2.31661 15.5368 2.4314 15.612 2.60395 15.6117C5.57579 15.6117 8.54763 15.6117 11.5195 15.6117L11.5204 15.6121Z" fill="#CA1D1D"/>
<path d="M8.1823 10.3361C8.05176 10.5864 7.99009 10.8345 7.89961 11.0716C7.81363 11.2973 7.73261 11.5251 7.64888 11.7516C7.53275 12.066 7.41526 12.3799 7.30002 12.6942C7.20099 12.9649 7.10511 13.2369 7.00608 13.5075C6.94846 13.6652 6.96017 13.6841 7.13167 13.6846C7.43912 13.685 7.74611 13.6899 8.05356 13.6819C8.16474 13.6793 8.19175 13.7133 8.18725 13.817C8.1787 14.0144 8.17825 14.2131 8.18725 14.4105C8.19265 14.5208 8.15214 14.5447 8.04771 14.5438C7.47648 14.5398 6.90525 14.5425 6.33357 14.5425C4.94623 14.5425 3.55844 14.5403 2.17111 14.5433C2.04507 14.5433 1.9924 14.5199 2.0023 14.3818C2.01581 14.1897 2.00995 13.9954 2.0005 13.8029C1.996 13.7098 2.02076 13.6806 2.11754 13.6824C2.40563 13.6881 2.69417 13.6753 2.98136 13.6886C3.1155 13.6947 3.16367 13.6351 3.20418 13.5292C3.32167 13.221 3.44366 12.9141 3.56745 12.6082C3.68403 12.3198 3.80512 12.0328 3.92351 11.7454C4.01759 11.5171 4.11302 11.2893 4.2044 11.0597C4.31558 10.7794 4.42046 10.4968 4.53255 10.2173C4.61538 10.0102 4.70811 9.80712 4.79183 9.60049C4.91787 9.28966 5.03851 8.97706 5.16365 8.66622C5.27618 8.38586 5.39232 8.10725 5.50486 7.82689C5.62414 7.52974 5.74388 7.23304 5.86137 6.93501C5.93609 6.74515 6.01262 6.55486 6.09364 6.36721C6.26515 5.96939 6.42089 5.5654 6.5825 5.16405C6.66622 4.95698 6.75175 4.7499 6.83593 4.54283C6.95476 4.2501 7.0718 3.95693 7.18884 3.66376C7.26806 3.46595 7.34504 3.26462 7.43867 3.07167C7.48143 2.98381 7.51429 2.98999 7.5575 3.06902C7.66869 3.27301 7.78347 3.47567 7.89241 3.68053C8.01665 3.91366 8.13684 4.14899 8.25747 4.38432C8.44383 4.7477 8.6428 5.10489 8.83456 5.46517C8.98715 5.75216 9.1375 6.04092 9.30225 6.32261C9.42289 6.52925 9.51652 6.75089 9.62861 6.96238C9.74609 7.18359 9.87303 7.39949 9.99187 7.61981C10.1134 7.84499 10.23 8.07237 10.3488 8.29887C10.4263 8.44634 10.5028 8.59425 10.5829 8.7404C10.6027 8.77616 10.6302 8.82782 10.6729 8.8212C10.7094 8.81546 10.731 8.76689 10.7513 8.72804C10.9151 8.41323 11.0929 8.10505 11.2451 7.78494C11.3842 7.49265 11.5363 7.2061 11.6853 6.91955C11.8406 6.62108 11.9937 6.32085 12.1575 6.02635C12.3803 5.62589 12.5815 5.21395 12.7918 4.80686C12.9083 4.5808 13.0245 4.35386 13.142 4.12824C13.2946 3.83463 13.4485 3.54145 13.602 3.24828C13.6371 3.18161 13.6826 3.11936 13.7082 3.05004C13.7298 2.9922 13.7681 3.00147 13.8104 3.00014C13.8653 2.99794 13.8987 3.0209 13.9185 3.073C14.0796 3.49421 14.2529 3.91145 14.4127 4.33266C14.5842 4.7839 14.7679 5.23072 14.938 5.6824C15.0573 5.99853 15.1865 6.3129 15.3202 6.62462C15.4408 6.90587 15.5291 7.20036 15.6524 7.48029C15.7447 7.68957 15.8194 7.90415 15.9072 8.11476C16.0301 8.41014 16.1377 8.7117 16.2551 9.00929C16.3425 9.22961 16.437 9.44728 16.5248 9.66804C16.6103 9.88306 16.6999 10.0968 16.776 10.3158C16.8556 10.5436 16.9605 10.763 17.0496 10.9882C17.1608 11.2686 17.2621 11.5529 17.3778 11.8315C17.4579 12.0249 17.5331 12.2196 17.6092 12.4143C17.7676 12.8218 17.9373 13.225 18.0931 13.6329C18.1205 13.7045 18.1628 13.6837 18.2038 13.6841C18.4869 13.6864 18.7705 13.6894 19.0537 13.6833C19.1563 13.6811 19.1788 13.7067 19.1712 13.8104C19.1568 14.0073 19.1563 14.2065 19.1703 14.4034C19.1784 14.5204 19.146 14.5456 19.0321 14.5451C17.4237 14.5416 15.8154 14.5425 14.207 14.5425C13.8707 14.5425 13.5349 14.5372 13.1987 14.5451C13.0812 14.5478 13.0515 14.5094 13.056 14.4012C13.0641 14.199 13.0636 13.9959 13.0564 13.7936C13.0533 13.704 13.0839 13.6824 13.1703 13.6837C13.4967 13.6881 13.823 13.6837 14.1498 13.6868C14.2412 13.6877 14.2678 13.6758 14.2435 13.5711C14.2106 13.4289 14.1467 13.2987 14.0972 13.1649C13.9374 12.7335 13.7897 12.2978 13.6187 11.8704C13.4566 11.465 13.3324 11.0447 13.191 10.6314C13.1834 10.6094 13.1708 10.5882 13.1568 10.5696C13.1154 10.5158 13.1357 10.4027 13.0533 10.4032C12.9754 10.4032 12.9601 10.5078 12.9245 10.5688C12.7179 10.9198 12.5149 11.273 12.3142 11.6275C12.1359 11.9428 11.9639 12.2616 11.7857 12.5768C11.6304 12.8519 11.4688 13.1238 11.3121 13.3985C11.1627 13.6612 11.0119 13.923 10.8701 14.1901C10.8242 14.2767 10.7621 14.3526 10.7256 14.4458C10.6923 14.5305 10.6401 14.4952 10.6054 14.4361C10.4897 14.24 10.3758 14.0431 10.2593 13.8475C10.0634 13.5199 9.86448 13.1941 9.66957 12.8656C9.49131 12.5658 9.31801 12.2629 9.14065 11.9626C8.94664 11.6337 8.74993 11.3065 8.55547 10.9776C8.43528 10.7741 8.31689 10.5692 8.1814 10.3374L8.1823 10.3361Z" fill="#CA1D1D"/>
</g>
<defs>
<clipPath id="clip0_5_1624">
<rect width="23" height="17" fill="white"/>
</clipPath>
</defs>
</svg>
