<svg id="svg-phone" viewBox="0 0 35 35" fill="none" xmlns="http://www.w3.org/2000/svg">
<path d="M17.4782 34.9932C13.8553 34.9932 10.2337 35.011 6.61072 34.9878C3.71482 34.9686 1.71986 33.5241 0.499888 30.9556C0.152106 30.2231 0.00286142 29.4262 0.00286142 28.6116C0.00286142 21.2085 -0.00261546 13.8054 0.00286142 6.40232C0.00696908 3.36277 2.43733 0.543652 5.43182 0.0836123C5.75632 0.0343224 6.08768 0.00556986 6.41629 0.00556986C13.7868 0.00146236 21.1559 -0.00401431 28.5265 0.00556986C31.3977 0.00967736 33.9828 1.99634 34.755 4.74015C34.9221 5.333 34.9988 5.93543 34.9988 6.55155C34.9988 13.8629 35.0029 21.1756 34.996 28.487C34.9933 31.6237 32.7217 34.3292 29.6355 34.9001C29.1878 34.9823 28.7332 34.9946 28.2773 34.9946C24.6776 34.9905 21.0779 34.9919 17.4782 34.9919V34.9932ZM5.83437 11.4258C5.88914 11.8338 5.88229 12.2774 5.97266 12.7142C6.23829 13.9971 6.7271 15.2074 7.23371 16.4027C8.84528 20.1967 11.5687 23.0897 14.7809 25.5734C16.7128 27.0671 18.9268 27.9941 21.2203 28.7526C22.009 29.0141 22.8223 29.1647 23.6561 29.1428C24.6242 29.1168 25.5306 28.8265 26.3987 28.424C27.5269 27.8996 28.5456 27.2547 28.8825 25.9376C28.966 25.6104 29.0468 25.2817 29.1138 24.9504C29.2604 24.2261 29.0947 23.6921 28.3717 23.2965C26.9163 22.501 25.4498 21.7233 24.0464 20.8347C23.6931 20.6115 23.3316 20.6608 23.0016 20.9251C22.6895 21.1756 22.4279 21.4768 22.1637 21.7753C21.7105 22.2846 21.2573 22.7967 20.7999 23.3033C20.4795 23.6593 20.1099 23.7332 19.6621 23.5388C19.3362 23.3964 19.0405 23.2088 18.7324 23.0391C16.2897 21.685 14.2523 19.8886 12.7366 17.5309C12.2587 16.7861 11.7576 16.0508 11.418 15.2266C11.2852 14.9062 11.3195 14.6214 11.5522 14.3421C11.8754 13.9533 12.256 13.6329 12.6462 13.318C13.1419 12.9195 13.6581 12.5444 14.0524 12.031C14.3468 11.6476 14.3564 11.267 14.114 10.8644C13.8676 10.455 13.6102 10.0539 13.3774 9.63765C12.7558 8.52726 12.1739 7.39359 11.4892 6.31743C11.2798 5.98746 11.0141 5.80673 10.6253 5.83685C10.309 5.86149 9.98858 5.8834 9.67914 5.94775C8.79736 6.12848 7.95666 6.4119 7.39528 7.17863C6.4779 8.43416 5.93843 9.83618 5.82889 11.4258H5.83437Z" fill="currentColor"/>
</svg>
