<svg id="svg-telegram" viewBox="0 0 24 24" fill="none" xmlns="http://www.w3.org/2000/svg">
<path fill-rule="evenodd" clip-rule="evenodd" d="M1.5119 10.7489C7.4155 8.20866 11.3522 6.53397 13.3219 5.72491C18.9458 3.41475 20.1144 3.01342 20.8761 3.00014C21.0436 2.99725 21.4182 3.03826 21.6608 3.23272C22.0207 3.52116 22.0228 4.14725 21.9828 4.56162C21.6781 7.72412 20.3594 15.3986 19.6885 18.9406C19.4045 20.4394 18.8456 20.9419 18.3045 20.9911C17.1285 21.098 16.2355 20.2235 15.0964 19.4862C13.3141 18.3323 12.3072 17.614 10.577 16.488C8.57764 15.1868 9.87379 14.4716 11.0132 13.3028C11.3115 12.9969 16.493 8.34233 16.5933 7.92006C16.6059 7.86725 16.6175 7.67037 16.4991 7.56647C16.3806 7.46256 16.2059 7.49803 16.0798 7.52631C15.901 7.56639 13.0537 9.42506 7.53779 13.1023C6.72957 13.6504 5.99752 13.9174 5.34166 13.9034C4.61855 13.888 3.22771 13.4997 2.19372 13.1677C0.925492 12.7606 -0.0824753 12.5453 0.00533221 11.8539C0.0510554 11.4937 0.553219 11.1254 1.5119 10.7489Z" fill="currentColor"/>
</svg>