<svg width="40" height="40" viewBox="0 0 40 40" fill="none" xmlns="http://www.w3.org/2000/svg">
<g clip-path="url(#clip0_5_1704)">
<path d="M30.5874 11.6777C30.5999 13.0983 30.171 14.7473 29.5605 16.3571C28.3317 19.6004 26.5425 22.5354 24.5545 25.3594C23.4383 26.9458 22.2612 28.4837 21.0026 29.9606C20.3718 30.7006 19.647 30.7335 19.024 29.995C15.9465 26.3591 13.2149 22.4885 11.1721 18.1689C10.4223 16.5856 9.83212 14.9397 9.53783 13.2062C9.34059 12.0485 9.38442 10.8798 9.50652 9.71108C9.67245 8.13091 10.1014 6.63367 10.8794 5.25377C12.4995 2.37819 14.9556 0.652523 18.2178 0.150313C21.8041 -0.403526 24.938 0.568039 27.5146 3.14949C29.0252 4.66238 29.8752 6.5398 30.3072 8.61748C30.495 9.52177 30.5608 10.437 30.5874 11.6761V11.6777ZM19.982 14.0714C21.9309 14.0729 23.5041 12.5319 23.5088 10.6185C23.5135 8.61748 21.9465 7.0248 19.982 7.03106C18.0785 7.03732 16.4756 8.61122 16.4724 10.4808C16.4677 12.5053 17.9971 14.0698 19.982 14.0714Z" fill="#FF8E00"/>
<path d="M36.539 30.519C36.5139 30.6676 36.3605 30.6864 36.2572 30.7411C34.3647 31.7236 32.469 32.6999 30.5765 33.6793C27.6085 35.2156 24.6406 36.7504 21.6789 38.2977C21.4159 38.4354 21.264 38.4292 21.048 38.2117C18.5669 35.721 16.0764 33.2397 13.5796 30.7646C13.3354 30.5221 13.2838 30.4016 13.6532 30.242C14.1651 30.0199 14.6566 29.7508 15.1481 29.4848C15.3266 29.3878 15.4252 29.391 15.5614 29.5662C16.0999 30.2514 16.6509 30.9289 17.2129 31.5954C18.736 33.4008 21.2531 33.4008 22.7746 31.5954C25.4295 28.4444 27.8089 25.1026 29.7985 21.4901C29.9159 21.2774 30.0442 21.1944 30.2837 21.2038C30.7643 21.221 31.248 21.207 31.7301 21.2117C32.2858 21.2164 32.6662 21.4933 32.8807 21.9939C34.0766 24.7709 35.271 27.548 36.4638 30.3265C36.4889 30.386 36.5108 30.447 36.5374 30.5205L36.539 30.519Z" fill="#FF8E00"/>
<path d="M9.63332 39.9828C6.85948 39.9828 4.08564 39.9531 1.31336 40C0.372573 40.0157 -0.252011 39.1114 0.097067 38.2196C0.474322 37.2574 1.02846 36.6395 1.97552 36.181C4.92311 34.7573 7.82062 33.2319 10.7353 31.7394C10.9561 31.6267 11.1001 31.5923 11.3067 31.8004C13.8129 34.3161 16.3269 36.8225 18.8534 39.3195C19.1148 39.5776 19.0804 39.6637 18.7704 39.806C18.5278 39.9187 18.2977 39.986 18.03 39.986C15.2311 39.9797 12.4322 39.9813 9.63176 39.9813L9.63332 39.9828Z" fill="#FF8E00"/>
<path d="M2.21658 33.3666C2.57818 32.5217 2.94448 31.6675 3.31078 30.8148C4.54899 27.9299 5.79346 25.0465 7.02072 22.1568C7.29779 21.5044 7.73453 21.1602 8.45929 21.204C8.75828 21.2212 9.06353 21.2431 9.35625 21.1993C9.85561 21.1242 10.1123 21.3292 10.3456 21.7657C11.3474 23.6509 12.5293 25.4282 13.769 27.1648C13.8911 27.3353 14.0023 27.4449 13.7143 27.5919C9.93544 29.5085 6.16289 31.4375 2.38877 33.365C2.34494 33.3869 2.30424 33.4276 2.21815 33.3666H2.21658Z" fill="#FF8E00"/>
<path d="M23.6559 39.9014C25.2949 39.0519 26.9323 38.2024 28.5712 37.3544C31.4452 35.8665 34.3208 34.3803 37.1933 32.8877C37.3952 32.7829 37.5048 32.7344 37.6206 33.0113C38.3689 34.7933 39.1485 36.5628 39.8983 38.3447C40.238 39.152 39.6838 39.9765 38.8135 39.9781C33.8387 39.9828 28.8624 39.9812 23.8876 39.9812C23.814 39.9812 23.7405 39.9812 23.6685 39.9812C23.6638 39.9546 23.6606 39.928 23.6559 39.903V39.9014Z" fill="#FF8E00"/>
</g>
<defs>
<clipPath id="clip0_5_1704">
<rect width="40" height="40" fill="white"/>
</clipPath>
</defs>
</svg>
