<svg id="svg-whatsapp" viewBox="0 0 25 25" fill="none" xmlns="http://www.w3.org/2000/svg">
<path d="M2.86103 23C2.72854 23 2.59783 22.9696 2.47908 22.9111C2.36033 22.8526 2.25675 22.7676 2.1764 22.6627C2.09605 22.5578 2.04109 22.4359 2.01581 22.3064C1.99054 22.1769 1.99562 22.0434 2.03066 21.9161L3.30011 17.3004C2.49867 15.7946 2.07996 14.1163 2.0806 12.4121C2.08275 6.671 6.77527 2 12.5405 2C15.3377 2.00086 17.9657 3.08557 19.9398 5.054C21.9144 7.022 23.0009 9.63843 23 12.4207C22.9978 18.1627 18.3058 22.8341 12.5401 22.8341C10.91 22.8335 9.30259 22.4544 7.84541 21.7271L3.07928 22.9717C3.00809 22.9906 2.93471 23.0001 2.86103 23ZM7.94958 19.9567C8.0925 19.9567 8.23455 19.9923 8.36197 20.0613C9.64327 20.7551 11.0785 21.119 12.5371 21.1199C17.357 21.1199 21.2764 17.2173 21.2786 12.4199C21.2822 11.2767 21.0581 10.1442 20.6193 9.08782C20.1805 8.03145 19.5356 7.0722 18.722 6.26557C17.9124 5.45437 16.9491 4.81116 15.8881 4.37323C14.827 3.93529 13.6892 3.71132 12.5405 3.71429C7.72445 3.71429 3.80505 7.61643 3.80289 12.4134C3.80203 13.9397 4.20418 15.4394 4.96903 16.7621C5.08396 16.9606 5.1141 17.1963 5.05383 17.417L4.08571 20.9369L7.73177 19.9846C7.80279 19.9661 7.8764 19.9567 7.94958 19.9567Z" fill="currentColor"/>
<path d="M8.7873 12.6055C8.66462 12.4426 7.78647 11.2821 7.78647 10.0808C7.78647 8.8795 8.41969 8.28893 8.64439 8.04465C8.86909 7.80036 9.13469 7.7395 9.29827 7.7395C9.46185 7.7395 9.62542 7.74122 9.76834 7.74807C9.919 7.75579 10.1209 7.69107 10.3198 8.16722C10.5242 8.65579 11.0141 9.8575 11.0757 9.97964C11.1372 10.1018 11.1777 10.2441 11.0963 10.4074C11.0145 10.5702 10.9736 10.6718 10.8514 10.8145C10.7287 10.9572 10.594 11.1329 10.4833 11.2422C10.3607 11.3639 10.2328 11.4959 10.3757 11.7402C10.5186 11.9845 11.0107 12.7838 11.7394 13.4314C12.6757 14.2632 13.4656 14.5208 13.711 14.6429C13.9559 14.7651 14.0993 14.7449 14.2422 14.5816C14.3851 14.4188 14.8552 13.8689 15.0187 13.6246C15.1823 13.3804 15.3455 13.4211 15.5702 13.5025C15.7949 13.5839 17.0002 14.1745 17.2451 14.2966C17.4901 14.4188 17.6536 14.4801 17.7152 14.5816C17.7767 14.6836 17.7767 15.1722 17.5723 15.7422C17.3678 16.3122 16.3885 16.8329 15.9176 16.9028C15.4953 16.9658 14.9606 16.9919 14.3735 16.8059C13.8987 16.6593 13.4322 16.4876 12.9757 16.2916C10.5161 15.2339 8.91042 12.7684 8.7873 12.6055Z" fill="currentColor"/>
</svg>
