<svg id='svg-check-list-fill' viewBox="0 0 19 19" fill="none" xmlns="http://www.w3.org/2000/svg">
<path d="M9.49926 19C4.25965 18.9993 0 14.7331 0 9.48775C0 4.2647 4.27526 -0.00816672 9.49926 1.17209e-05C14.7604 0.00819016 19.0803 4.3041 18.9993 9.65577C18.9219 14.768 14.7322 18.997 9.49926 19ZM8.01816 13.2929C8.35721 13.3034 8.59811 13.1718 8.80852 12.9628C10.1186 11.6595 11.4302 10.3584 12.741 9.05577C13.4161 8.38514 14.0913 7.71377 14.7641 7.04016C15.1114 6.69221 15.1917 6.25801 14.9842 5.87957C14.6496 5.26767 13.8994 5.19035 13.3752 5.71377C12.4391 6.64908 11.5031 7.58514 10.567 8.5212C9.758 9.33012 8.94756 10.1376 8.14307 10.9517C8.04567 11.0498 7.99065 11.0543 7.89548 10.9554C7.75421 10.8089 7.59807 10.6766 7.44713 10.539C6.77053 9.92343 6.09764 9.30336 5.41434 8.69444C5.17716 8.48254 4.88123 8.43867 4.57936 8.52715C3.85443 8.73979 3.67078 9.62455 4.24775 10.1547C5.29909 11.1212 6.35861 12.0796 7.41665 13.0387C7.59584 13.2008 7.80328 13.3019 8.01742 13.2937L8.01816 13.2929Z" fill="#282828"/>
</svg>
