<svg width="40" height="40" viewBox="0 0 40 40" fill="none" xmlns="http://www.w3.org/2000/svg">
<g clip-path="url(#clip0_5_1680)">
<path d="M22.1236 23.5964C22.3671 23.5964 22.5729 23.5964 22.7786 23.5964C26.2421 23.5964 29.7055 23.5964 33.1674 23.5964C33.9464 23.5964 34.5025 23.1052 34.5025 22.4232C34.5025 21.7474 33.937 21.2531 33.1674 21.2531C29.1023 21.2531 25.0389 21.2499 20.9739 21.2577C20.6927 21.2577 20.4948 21.1936 20.3 20.973C18.2754 18.6672 15.7229 17.2828 12.7087 16.7478C11.7207 16.5726 10.7139 16.4834 9.70864 16.6148C9.38978 16.657 9.40549 16.4959 9.40549 16.2832C9.40863 14.3434 9.40706 12.4052 9.40706 10.4654C9.40706 8.18774 9.43848 5.91007 9.39764 3.6324C9.36465 1.60972 11.0343 -0.00623922 13.0307 1.81109e-05C18.4811 0.0234831 23.93 0.0125328 29.3804 1.81109e-05C29.7259 1.81109e-05 29.8076 0.0860564 29.806 0.427081C29.7903 3.17405 29.7982 5.91946 29.7982 8.66642C29.7982 9.74894 30.2176 10.1619 31.3186 10.1619C34.0768 10.1619 36.8334 10.1682 39.5916 10.1557C39.912 10.1557 40.0016 10.2276 40.0016 10.5577C39.9922 19.2006 39.9953 27.842 39.9922 36.485C39.9922 38.4232 38.434 39.9922 36.4942 39.9938C30.4689 40.0016 24.4451 39.9969 18.4199 39.9969C18.3288 39.9969 18.2377 39.9969 18.1057 39.9969C18.2047 39.7998 18.3806 39.7372 18.5141 39.6308C21.0257 37.6363 22.6184 35.0755 23.2797 31.9437C23.3456 31.6277 23.4258 31.3055 23.4258 30.9879C23.4258 30.6594 23.5655 30.6203 23.8436 30.6203C26.9536 30.6281 30.0636 30.6234 33.1736 30.6281C33.5883 30.6281 33.9527 30.5249 34.2182 30.1995C34.5213 29.8272 34.6046 29.4032 34.3894 28.9621C34.1789 28.5303 33.8098 28.2972 33.326 28.2863C32.7511 28.2722 32.1762 28.2816 31.6014 28.2816C29.0269 28.2816 26.4525 28.2785 23.8781 28.2863C23.5954 28.2863 23.4666 28.266 23.4226 27.9155C23.2483 26.5076 22.8776 25.1482 22.2367 23.8702C22.1974 23.792 22.1707 23.7091 22.1236 23.5949V23.5964ZM24.6949 14.2245C21.8597 14.2245 19.023 14.2245 16.1879 14.2245C15.6397 14.2245 15.2187 14.4388 14.9988 14.9488C14.6564 15.7419 15.2486 16.5632 16.1627 16.5647C19.2995 16.5694 22.4362 16.5663 25.5714 16.5663C28.1191 16.5663 30.6683 16.5647 33.2161 16.5694C33.6527 16.5694 34.0093 16.4271 34.2653 16.0735C34.5386 15.6934 34.592 15.282 34.3658 14.8643C34.1286 14.4263 33.7423 14.2229 33.2412 14.2229C30.3919 14.2245 27.5426 14.2229 24.6949 14.2229V14.2245Z" fill="#FF8E00"/>
<path d="M21.1702 29.4345C21.1702 35.2945 16.4282 40.0031 10.5348 39.9969C4.72473 39.9906 -0.00313988 35.246 1.5646e-06 29.422C0.00314301 23.6293 4.76243 18.905 10.5914 18.9097C16.425 18.9144 21.1702 23.6371 21.1702 29.4345ZM8.95783 33.9914C9.29553 33.9632 9.58926 33.8225 9.839 33.5706C10.3715 33.034 10.9087 32.5037 11.4443 31.9703C12.6804 30.7376 13.9197 29.508 15.1528 28.2722C15.6821 27.7419 15.7449 27.149 15.3444 26.6328C14.8794 26.0321 14.1035 26.018 13.5066 26.6124C12.0631 28.0438 10.6212 29.4767 9.18872 30.9206C8.9971 31.1146 8.88872 31.1302 8.69709 30.9253C8.30598 30.5076 7.88974 30.1119 7.47821 29.713C6.93945 29.1905 6.24676 29.1607 5.76926 29.6332C5.28077 30.1166 5.28234 30.7986 5.80382 31.3352C6.55934 32.1095 7.33213 32.8651 8.09864 33.6285C8.33111 33.86 8.61855 33.9648 8.95783 33.993V33.9914Z" fill="#FF8E00"/>
<path d="M39.1691 7.81853C37.8874 7.81853 36.5695 7.81853 35.2533 7.81853C34.325 7.81853 33.3982 7.81853 32.4699 7.82166C32.2956 7.82166 32.1448 7.84512 32.1464 7.57606C32.1589 5.32498 32.1574 3.0739 32.1621 0.822829C32.1621 0.813443 32.1762 0.805621 32.1652 0.818136C34.4977 3.14899 36.8318 5.48298 39.1691 7.82009V7.81853Z" fill="#FF8E00"/>
</g>
<defs>
<clipPath id="clip0_5_1680">
<rect width="40" height="40" fill="white"/>
</clipPath>
</defs>
</svg>
