<svg width="40" height="40" viewBox="0 0 40 40" fill="none" xmlns="http://www.w3.org/2000/svg">
<path d="M20.02 40C9.05981 40.01 0.141652 31.1816 0.00162878 20.273C-0.140062 8.94528 8.98147 0.00501065 20 2.09481e-06C30.9635 -0.00500646 39.9883 8.97199 40 19.9007C40.01 31.023 31.1018 39.985 20.02 40ZM19.925 36.7494C29.2282 36.7494 36.7561 29.275 36.7494 20.0058C36.7428 10.6766 29.2665 3.35907 20.2333 3.25556C10.7884 3.14537 3.44721 10.6198 3.25384 19.5818C3.0438 29.3 10.7768 36.711 19.925 36.7511V36.7494Z" fill="#FF8E00"/>
<path d="M20.224 33.5983C12.4847 33.5818 6.3717 27.3902 6.23645 20.0046C6.08951 12.0253 12.5999 5.87995 20.204 5.86672C28.0836 5.85349 34.3735 12.1923 34.285 19.9037C34.1982 27.4018 28.0067 33.6198 20.2257 33.6L20.224 33.5983ZM18.9233 15.0814C18.9233 16.5945 18.9249 18.1061 18.9233 19.6192C18.9233 20.0889 19.0802 20.4858 19.4609 20.7686C21.2476 22.1015 23.0375 23.4295 24.8309 24.7525C25.1431 24.9823 25.4971 25.0799 25.8912 24.9757C26.4572 24.8252 26.8129 24.4664 26.9197 23.9041C27.0216 23.3683 26.7978 22.935 26.3637 22.6125C24.8743 21.5095 23.3849 20.4048 21.8854 19.3133C21.6717 19.1579 21.5915 19.0007 21.5915 18.7378C21.6016 16.029 21.5982 13.3201 21.5982 10.6097C21.5982 9.76625 21.0489 9.1709 20.2741 9.16594C19.4776 9.16098 18.9266 9.75467 18.9266 10.6229C18.9266 12.1079 18.9266 13.593 18.9266 15.0781L18.9233 15.0814Z" fill="#FF8E00"/>
</svg>
