<svg width="40" height="39" viewBox="0 0 40 39" fill="none" xmlns="http://www.w3.org/2000/svg">
<g clip-path="url(#clip0_5_1721)">
<path d="M19.9546 15.9074C15.0215 15.9074 10.0899 15.9074 5.1568 15.9074C4.52491 15.9074 4.44514 15.9902 4.44514 16.6269C4.44514 23.6129 4.44201 30.5972 4.44045 37.5831C4.44045 38.5321 3.9853 38.9862 3.02964 38.9909C2.44467 38.994 1.85814 38.9987 1.27317 38.9878C0.459842 38.9722 0.00312818 38.5008 0.00312818 37.6908C0.00312818 29.3143 0.00469227 20.9408 0 12.5659C0 11.7605 0.347228 11.1706 1.02761 10.7726C6.99304 7.28429 12.9616 3.80226 18.9255 0.312429C19.6606 -0.118338 20.3723 -0.0933658 21.0949 0.328036C27.0259 3.79602 32.9569 7.264 38.8895 10.7289C39.6262 11.1596 39.9922 11.7714 39.9922 12.6392C39.9844 20.9487 39.9797 29.2581 40.0016 37.5675C40.0031 38.3557 39.548 39.0502 38.5657 38.9972C38.0214 38.9675 37.4724 38.9925 36.9266 38.9893C36.0163 38.9847 35.5455 38.5071 35.5455 37.5862C35.5455 30.6659 35.5455 23.7455 35.5455 16.8252C35.5455 15.9043 35.5423 15.9043 34.5992 15.9043C29.7192 15.9043 24.8377 15.9043 19.9578 15.9043L19.9546 15.9074Z" fill="#FF8E00"/>
<path d="M19.939 34.6018C17.6101 34.6018 15.2796 34.6096 12.9507 34.594C12.63 34.5925 12.5534 34.6908 12.5675 34.9858C12.5831 35.3073 12.6128 35.6351 12.5346 35.955C12.3172 36.8368 11.7182 37.3893 10.8016 37.5002C9.97888 37.6 9.15774 37.6156 8.50082 36.9711C8.10511 36.5824 7.8877 36.1126 7.8877 35.5508C7.8877 33.9807 7.89708 32.409 7.88457 30.8389C7.87362 29.339 8.11136 27.8797 8.5759 26.4579C8.67287 26.1613 8.63377 26.0193 8.32721 25.8741C7.4044 25.4387 6.9993 24.4679 7.35591 23.6516C7.63744 23.007 8.32252 22.6684 9.01853 22.7901C9.32822 22.8447 9.68484 23.1022 9.9304 22.9181C10.1447 22.7573 10.1869 22.3703 10.312 22.0878C10.6499 21.3199 10.8516 20.4864 11.3991 19.8215C12.264 18.7727 13.3698 18.1828 14.74 18.1765C18.2138 18.1625 21.6892 18.1687 25.1631 18.1718C26.9555 18.1718 28.5305 19.255 29.1859 20.9156C29.4283 21.529 29.688 22.1361 29.9273 22.7511C30.007 22.9571 30.0946 23.0226 30.3292 22.9493C30.7218 22.8275 31.1269 22.698 31.5492 22.7917C32.1295 22.9196 32.5502 23.2583 32.6879 23.8389C32.838 24.471 32.6769 25.0469 32.203 25.5167C32.0263 25.6931 31.8229 25.8367 31.5899 25.9225C31.3741 26.0021 31.288 26.0848 31.3741 26.3455C32.0059 28.2605 32.1498 30.2364 32.0967 32.2404C32.0685 33.2783 32.092 34.3178 32.092 35.3557C32.092 36.6121 31.4178 37.3878 30.1775 37.5267C29.6598 37.5844 29.1327 37.5782 28.6385 37.3925C27.8267 37.0881 27.3966 36.3546 27.3966 35.3416C27.3966 34.4614 27.4826 34.6081 26.6505 34.6065C24.4123 34.5987 22.1741 34.6034 19.9359 34.605L19.939 34.6018ZM19.9765 26.2097C19.9765 26.2097 19.9765 26.2035 19.9765 26.2019C22.6167 26.2019 25.2585 26.2097 27.8986 26.1972C28.6682 26.1941 29.0952 25.6322 28.8293 24.919C28.3272 23.5751 27.786 22.2454 27.2183 20.9281C26.7897 19.9339 25.9951 19.4079 24.8972 19.4064C21.5938 19.4001 18.2889 19.4033 14.984 19.4064C14.8291 19.4064 14.6712 19.4158 14.5226 19.4532C13.6451 19.6764 13.0367 20.2024 12.6973 21.0483C12.1968 22.2969 11.6603 23.533 11.1754 24.7879C10.8563 25.6119 11.2583 26.1738 12.1326 26.2066C12.289 26.2128 12.4455 26.2097 12.6003 26.2097C15.059 26.2097 17.5178 26.2097 19.9765 26.2097ZM13.0163 29.0627C13.0163 29.0627 13.0163 29.0612 13.0163 29.0596C12.4455 29.0596 11.873 29.0487 11.3021 29.0627C10.9189 29.0721 10.689 29.2906 10.6061 29.6668C10.4966 30.1662 10.5169 30.675 10.5764 31.1713C10.6389 31.6801 10.8907 31.8752 11.4069 31.9252C11.6008 31.9439 11.7964 31.933 11.9919 31.933C12.7974 31.933 13.6029 31.9408 14.4084 31.9298C15.1263 31.9205 15.4266 31.6192 15.4313 30.9122C15.4344 30.5236 15.4266 30.135 15.3922 29.7479C15.3531 29.3109 15.0966 29.0784 14.6524 29.0674C14.1065 29.0534 13.5606 29.0643 13.0148 29.0643L13.0163 29.0627ZM26.9446 29.0596V29.0565C26.3987 29.0565 25.8513 29.044 25.3054 29.0596C24.8174 29.0737 24.5359 29.3593 24.5202 29.8416C24.5077 30.2692 24.5108 30.6984 24.5218 31.1261C24.5343 31.5599 24.758 31.8159 25.1975 31.8893C25.7652 31.9845 26.3393 31.9267 26.9101 31.9283C27.4935 31.9283 28.0816 31.9845 28.6619 31.8939C29.1171 31.8237 29.3501 31.5537 29.3642 31.1026C29.3767 30.7 29.3751 30.2973 29.3642 29.8962C29.3517 29.3733 29.0608 29.0752 28.5415 29.0643C28.0081 29.0518 27.4748 29.0612 26.9414 29.0612L26.9446 29.0596Z" fill="#FF8E00"/>
</g>
<defs>
<clipPath id="clip0_5_1721">
<rect width="40" height="39" fill="white"/>
</clipPath>
</defs>
</svg>
