<svg width="32" height="39" viewBox="0 0 32 39" fill="none" xmlns="http://www.w3.org/2000/svg">
<g clip-path="url(#clip0_5_1690)">
<path d="M23.271 16.3429C24.3791 16.3429 25.0257 17.4433 24.47 18.3733C24.1612 18.8893 23.6621 19.0529 23.084 19.0512C20.717 19.0477 18.3482 19.0495 15.9811 19.0495L15.9194 19.0512L32 28.271C32 25.9409 31.9931 23.6091 31.9931 21.2807C31.9931 17.1145 31.9983 12.9483 31.9897 8.78378C31.9828 6.17266 30.3482 4.2207 27.7822 3.70801C27.4871 3.6484 27.3756 3.70801 27.3877 4.02993C27.4065 4.58179 27.4425 5.14388 27.3636 5.68552C26.9142 8.76846 24.5077 10.8618 21.3739 10.8805C17.7787 10.901 14.1835 10.9027 10.5883 10.8839C8.03431 10.8703 5.92281 9.41911 4.97942 7.08732C4.58148 6.10623 4.56604 5.07574 4.6072 4.04356C4.62093 3.67735 4.47684 3.65351 4.18182 3.71482C1.65866 4.22581 0.00686106 6.20502 0.0051458 8.77356V9.92668L11.1904 16.3395C15.2178 16.3395 19.2453 16.3395 23.271 16.3429ZM8.78388 26.2969C7.94511 26.2969 7.34648 25.7246 7.34477 24.9462C7.34134 24.1389 7.93654 23.5802 8.80789 23.5785C10.3533 23.5768 11.9005 23.5768 13.4477 23.5768L0.00171527 15.8677C0 21.8769 0.00171527 27.8844 0 33.8935C0 34.2768 0.0497427 34.6549 0.12693 35.0279C0.593482 37.2728 2.63979 39.0068 5.1012 39C12.3619 38.9846 19.6244 38.9915 26.8851 38.9932C27.6072 38.9932 28.307 38.8858 28.9606 38.581C30.8593 37.6936 31.8731 36.2117 31.9743 34.1984L18.1973 26.3003C15.06 26.3003 11.9211 26.3003 8.78388 26.2969ZM24.6449 31.9331C24.7581 32.6127 24.3825 33.2361 23.729 33.4762C23.5592 33.5375 23.3928 33.5307 23.2247 33.5307C20.813 33.5341 18.4031 33.5324 15.9931 33.5324C13.5832 33.5324 11.1149 33.5341 8.6741 33.5324C8.1235 33.5307 7.71698 33.265 7.48028 32.783C7.23671 32.2873 7.28817 31.7934 7.63122 31.3505C7.92281 30.9741 8.33448 30.8276 8.79588 30.8276C13.5883 30.8242 18.3808 30.8225 23.1732 30.8293C23.9554 30.8293 24.5352 31.2858 24.6449 31.9331Z" fill="#FF8E00"/>
<path d="M15.9949 0.0102593C17.8336 0.0102593 19.6724 0.0221823 21.5112 0.00685279C23.2127 -0.00847673 24.6415 1.42568 24.6535 3.00463C24.6604 3.92099 24.789 4.84928 24.566 5.75031C24.2093 7.1981 22.9949 8.16556 21.4991 8.17408C17.8353 8.19282 14.1715 8.20474 10.5077 8.16897C8.52316 8.15023 7.30875 6.53382 7.33619 5.05197C7.35163 4.19011 7.22642 3.31803 7.40481 2.4715C7.71527 1.00327 9.07376 -0.0272128 10.6055 3.96697e-05C12.4014 0.032402 14.1973 0.00685279 15.9949 0.00685279V0.0102593Z" fill="#FF8E00"/>
</g>
<defs>
<clipPath id="clip0_5_1690">
<rect width="32" height="39" fill="white"/>
</clipPath>
</defs>
</svg>
