<svg width="35" height="40" viewBox="0 0 35 40" fill="none" xmlns="http://www.w3.org/2000/svg">
<path d="M34.9948 13.1181C34.9948 15.433 35.0076 17.7479 34.993 20.0645C34.9562 25.5743 32.634 30.1142 28.3751 33.8277C26.6091 35.3681 24.5017 36.4175 22.431 37.517C20.9844 38.2864 19.5323 39.0488 18.0931 39.8302C17.6947 40.0463 17.3496 40.0636 16.9439 39.8389C14.2215 38.34 11.3669 37.0433 8.75834 35.3698C4.3654 32.5484 1.56773 28.6533 0.394685 23.759C0.110145 22.5713 0 21.3525 0 20.1285C0.00734298 15.1961 0.00183574 10.2638 0.00183574 5.33142C0.00183574 4.47911 0.139517 4.36155 1.0629 4.21114C3.78347 3.77029 6.48018 3.23262 9.14384 2.54628C11.8681 1.84437 14.5538 1.02837 17.1826 0.0550344C17.5332 -0.0746278 17.8104 0.0498479 18.0968 0.170866C19.7893 0.88833 21.5259 1.48823 23.2974 2.00688C26.4329 2.92489 29.6326 3.57839 32.8745 4.05382C33.3096 4.11778 33.7465 4.17138 34.1797 4.24399C34.8112 4.34945 34.9966 4.56901 34.9966 5.18274C34.9966 7.82958 34.9966 10.4747 34.9966 13.1215H34.993L34.9948 13.1181ZM3.94685 14.4078C3.94685 15.86 3.96154 17.3122 3.94318 18.7644C3.92849 19.9867 3.92666 21.2107 4.14695 22.414C4.92347 26.6704 7.19245 30.0641 10.9741 32.5052C12.8722 33.7309 14.9283 34.7215 16.898 35.8418C17.3331 36.089 17.6874 36.0856 18.1206 35.8418C19.7526 34.9169 21.4195 34.0438 23.0404 33.1016C28.0685 30.1851 30.8332 25.9512 31.0204 20.3809C31.1563 16.3302 31.0553 12.2744 31.0535 8.2203C31.0535 7.6688 30.835 7.43022 30.2659 7.33514C29.1902 7.15361 28.1071 7.00147 27.035 6.7992C24.0042 6.2235 21.0431 5.42651 18.2326 4.19385C17.7406 3.97775 17.3147 3.95009 16.8026 4.14717C12.9732 5.61322 9.00616 6.62977 4.93999 7.31266C4.10289 7.4527 3.94685 7.62039 3.94685 8.41565C3.94685 10.4142 3.94685 12.4127 3.94685 14.4095V14.4078Z" fill="#FF8E00"/>
<path d="M28.9105 15.0524C28.9105 16.7021 28.9402 18.3517 28.9053 19.9997C28.7988 25.0021 26.4894 28.8214 22.0434 31.4542C20.6277 32.2924 19.1719 33.0705 17.737 33.8787C17.5729 33.972 17.435 34.0637 17.2256 33.9404C15.2984 32.8139 13.2439 31.8774 11.4442 30.566C8.44349 28.3798 6.64727 25.4803 6.09217 21.8977C5.9822 21.1828 5.93333 20.468 5.93333 19.7465C5.93333 16.3105 5.94031 12.8728 5.92285 9.4368C5.92285 9.10853 6.05901 9.00688 6.34005 8.95856C9.97611 8.33368 13.5092 7.3622 16.9515 6.08578C17.2709 5.96747 17.5293 5.96914 17.8505 6.10578C20.605 7.28222 23.4887 8.06373 26.4458 8.61696C27.1405 8.74693 27.8353 8.87357 28.5335 8.98189C28.8285 9.02854 28.9263 9.14019 28.9228 9.44013C28.9053 11.3114 28.914 13.1811 28.914 15.0524H28.9105ZM25.2675 16.0638C25.2605 15.9272 25.2605 15.7956 25.2099 15.6589C24.8608 14.7108 23.7349 14.4725 22.8691 15.1624C20.1407 17.3369 17.4071 19.5015 14.6857 21.6828C14.4204 21.896 14.3226 21.8694 14.1568 21.5894C13.5197 20.5196 12.8616 19.4598 12.1965 18.4067C11.7427 17.6885 10.903 17.4786 10.2153 17.8835C9.55368 18.2734 9.37563 19.0733 9.80854 19.7781C10.7843 21.3645 11.7619 22.9508 12.7499 24.5305C13.2666 25.357 14.183 25.5153 14.9633 24.9021C16.6652 23.5657 18.3532 22.2126 20.0482 20.8662C21.5424 19.6798 23.0349 18.4934 24.5326 17.3103C24.9463 16.9837 25.3007 16.6304 25.2675 16.0655V16.0638Z" fill="#FF8E00"/>
</svg>
