<svg width="77" height="41" viewBox="0 0 77 41" fill="none" xmlns="http://www.w3.org/2000/svg">
<path d="M40.4147 0H0V40.4147H40.4147V0Z" fill="white"/>
<path d="M23.5485 14.8098L19.667 25.163H17.1082L14.9313 18.4197L12.4945 25.163H9.90426L6.46368 14.8098H9.12876L11.2742 21.5256L13.6322 14.8098H16.3563L18.4585 21.4941L20.8637 14.8098H23.5445H23.5485Z" fill="#282828"/>
<path d="M33.5081 14.8101V17.1248H28.0717V18.908H32.6106V21.0692H28.0717V22.8525H33.5081V25.1672H25.5759V14.814H33.5081V14.8101Z" fill="#282828"/>
<path d="M52.459 22.1391C52.459 23.8279 51.3764 25.1545 48.546 25.1545H43.4442V14.8013H47.9359C50.9355 14.8013 51.8803 15.9901 51.8803 17.6474C51.8803 18.7142 51.1324 19.4583 50.904 19.6275C51.9079 20.1314 52.4551 21.029 52.4551 22.1391H52.459ZM49.5066 17.9663C49.5066 17.2656 49.0499 16.931 48.0894 16.931H45.9439V19.0922H48.0894C49.172 19.0922 49.5066 18.7733 49.5066 17.9663ZM48.2587 20.9975H45.9439V23.0091H48.2587C49.2625 23.0091 49.7664 22.6744 49.7664 22.0052C49.7664 21.2455 49.2467 21.0014 48.2587 21.0014V20.9975Z" fill="white"/>
<path d="M64.5365 19.9781C64.5365 22.9305 62.1312 25.3397 59.1906 25.3397C56.25 25.3397 53.8447 22.9344 53.8447 19.9781C53.8447 17.0217 56.2185 14.6204 59.1906 14.6204C62.1627 14.6204 64.5365 17.0414 64.5365 19.9781ZM56.1319 19.9781C56.1319 21.6669 57.5018 23.025 59.1906 23.025C60.8794 23.025 62.2218 21.6708 62.2218 19.9781C62.2218 18.2853 60.8518 16.9469 59.1906 16.9469C57.5293 16.9469 56.1319 18.3011 56.1319 19.9781Z" fill="white"/>
<path d="M65.6821 23.5131L69.1542 20.0883L65.501 16.4036L67.2843 14.6204L70.9375 18.305L74.6969 14.6204L76.4802 16.3879L72.6892 20.1198L76.1456 23.5604L74.3347 25.3554L70.9257 21.8834L67.4693 25.3239L65.6861 23.5131H65.6821Z" fill="white"/>
</svg>
